HIERARCHY
ROOT hip
{
	OFFSET 0.000000 0.000000 0.000000
	CHANNELS 6 Xposition Yposition Zposition Xrotation Zrotation Yrotation 
	JOINT abdomen
	{
		OFFSET 0.000000 3.422050 0.000000
		CHANNELS 3 Xrotation Zrotation Yrotation 
		JOINT chest
		{
			OFFSET 0.000000 8.486693 -0.684411
			CHANNELS 3 Xrotation Zrotation Yrotation 
			JOINT neck
			{
				OFFSET 0.000000 10.266162 -0.273764
				CHANNELS 3 Xrotation Zrotation Yrotation 
				JOINT head
				{
					OFFSET 0.000000 3.148285 0.000000
					CHANNELS 3 Xrotation Zrotation Yrotation 
					End Site
					{
						OFFSET 0.000000 3.148289 0.000000
					}
				}
			}
			JOINT lCollar
			{
				OFFSET 3.422053 6.707223 -0.821293
				CHANNELS 3 Yrotation Zrotation Xrotation 
				JOINT lShldr
				{
					OFFSET 3.285171 0.000000 0.000000
					CHANNELS 3 Zrotation Yrotation Xrotation 
					JOINT lForeArm
					{
						OFFSET 10.129278 0.000000 0.000000
						CHANNELS 3 Yrotation Zrotation Xrotation 
						JOINT lHand
						{
							OFFSET 8.486692 0.000000 0.000000
							CHANNELS 3 Zrotation Yrotation Xrotation 
							End Site
							{
								OFFSET 4.106464 0.000000 0.000000
							}
						}
					}
				}
			}
			JOINT rCollar
			{
				OFFSET -3.558935 6.707223 -0.821293
				CHANNELS 3 Yrotation Zrotation Xrotation 
				JOINT rShldr
				{
					OFFSET -3.148289 0.000000 0.000000
					CHANNELS 3 Zrotation Yrotation Xrotation 
					JOINT rForeArm
					{
						OFFSET -10.266159 0.000000 0.000000
						CHANNELS 3 Yrotation Zrotation Xrotation 
						JOINT rHand
						{
							OFFSET -8.349810 0.000000 0.000000
							CHANNELS 3 Zrotation Yrotation Xrotation 
							End Site
							{
								OFFSET -4.106464 0.000000 0.000000
							}
						}
					}
				}
			}
		}
	}
	JOINT lThigh
	{
		OFFSET 5.338403 -1.642589 1.368821
		CHANNELS 3 Xrotation Zrotation Yrotation 
		JOINT lShin
		{
			OFFSET -2.053232 -20.121670 0.000000
			CHANNELS 3 Xrotation Zrotation Yrotation 
			JOINT lFoot
			{
				OFFSET 0.000000 -19.300380 -1.231939
				CHANNELS 3 Xrotation Yrotation Zrotation 
				End Site
				{
					OFFSET 0.000000 -2.463878 4.653993
				}
			}
		}
	}
	JOINT rThigh
	{
		OFFSET -5.338403 -1.642589 1.368821
		CHANNELS 3 Xrotation Zrotation Yrotation 
		JOINT rShin
		{
			OFFSET 2.053232 -20.121670 0.000000
			CHANNELS 3 Xrotation Zrotation Yrotation 
			JOINT rFoot
			{
				OFFSET 0.000000 -19.300380 -1.231939
				CHANNELS 3 Xrotation Yrotation Zrotation 
				End Site
				{
					OFFSET 0.000000 -2.463878 4.653993
				}
			}
		}
	}
}
MOTION
Frames: 11
Frame Time: 0.099947
5.134906 43.147030 25.354042 0.000000 0.000000 180.000000 0.194803 -6.343515 -3.002335 -2.711062 1.693127 -3.755225 16.641949 0.816246 -0.023812 2.904637 11.108273 0.291311 10.288955 -64.920357 6.186464 0.165805 1.706358 -0.961103 -110.907288 -25.585400 -50.532646 -33.288818 -6.130031 13.326476 39.285812 51.492901 -32.993870 -7.802538 -6.527813 -3.617176 113.754028 17.293671 -49.752453 35.432812 13.735814 31.005030 -5.228570 12.803175 -0.559218 17.704342 0.089145 -0.401979 -1.670045 25.090258 -5.701754 -16.165636 -11.668446 0.006724 29.427774 -2.157837 0.459697 -17.065382 -1.181908 -8.629510 
4.978305 43.147030 25.362188 0.000000 0.000000 180.000000 0.150904 -6.264140 -2.968299 -2.731657 1.498489 -3.749558 16.313128 0.800100 -0.025559 2.845808 10.888881 0.280085 9.602785 -64.781631 5.659046 0.165805 1.706358 -0.961103 -111.164238 -24.930773 -50.756798 -33.139942 -5.811497 13.248827 39.454815 51.255035 -33.112373 -7.575037 -5.794719 -3.658879 113.741028 16.780804 -49.932148 34.825218 13.919167 30.819876 -5.298670 12.560693 -0.540873 17.704342 0.089145 -0.401979 -1.911499 24.610138 -5.408898 -15.982986 -11.938513 0.031581 29.018387 -2.059613 0.468344 -16.828884 -1.188032 -8.450438 
4.821703 43.147030 25.370333 0.000000 0.000000 180.000000 0.107057 -6.184737 -2.934329 -2.752271 1.303831 -3.743820 15.984210 0.783940 -0.027213 2.787057 10.669449 0.269096 8.922960 -64.640228 5.138107 0.165805 1.706358 -0.961103 -111.417389 -24.274378 -50.976864 -32.991524 -5.492652 13.172025 39.622192 51.016903 -33.229168 -7.347983 -5.060294 -3.697667 113.726357 16.267569 -50.111618 34.215904 14.100788 30.632395 -5.368795 12.318188 -0.522237 17.704342 0.089145 -0.401979 -2.149544 24.128498 -5.119128 -15.800219 -12.208734 0.055589 28.608835 -1.961279 0.476292 -16.592308 -1.193419 -8.271298 
4.665102 43.147030 25.378479 0.000000 0.000000 180.000000 0.063264 -6.105307 -2.900423 -2.772905 1.109157 -3.738011 15.655204 0.767765 -0.028774 2.728382 10.449970 0.258341 8.249499 -64.496132 4.623671 0.165805 1.706358 -0.961103 -111.666794 -23.616268 -51.192894 -32.843575 -5.173506 13.096069 39.787971 50.778511 -33.344284 -7.121329 -4.324618 -3.733549 113.710022 15.753992 -50.290897 33.604889 14.280639 30.442583 -5.438951 12.075667 -0.503311 17.704342 0.089145 -0.401979 -2.384228 23.645397 -4.832398 -15.617332 -12.479104 0.078746 28.199137 -1.862847 0.483539 -16.355667 -1.198067 -8.092098 
4.508500 43.147030 25.386625 0.000000 0.000000 180.000000 0.019523 -6.025849 -2.866583 -2.793561 0.914466 -3.732133 15.326110 0.751578 -0.030244 2.669783 10.230461 0.247822 7.582434 -64.349434 4.115764 0.165805 1.706358 -0.961103 -111.912567 -22.956535 -51.405006 -32.696064 -4.854065 13.020952 39.952202 50.539890 -33.457767 -6.895019 -3.587762 -3.766527 113.692070 15.240106 -50.470020 32.992222 14.458681 30.250484 -5.509135 11.833130 -0.484096 17.704342 0.089145 -0.401979 -2.615596 23.160856 -4.548653 -15.434312 -12.749611 0.101047 27.789295 -1.764323 0.490083 -16.118963 -1.201976 -7.912844 
4.351899 43.147030 25.394772 0.000000 0.000000 180.000000 -0.024165 -5.946363 -2.832809 -2.814236 0.719761 -3.726184 14.996936 0.735379 -0.031620 2.611258 10.010908 0.237536 6.921781 -64.200203 3.614402 0.165805 1.706358 -0.961103 -112.154793 -22.295242 -51.613266 -32.549011 -4.534339 12.946675 40.114861 50.300987 -33.569599 -6.668995 -2.849802 -3.796605 113.672478 14.725932 -50.648987 32.377926 14.634869 30.056108 -5.579352 11.590579 -0.464592 17.704342 0.089145 -0.401979 -2.843693 22.674940 -4.267850 -15.251161 -13.020252 0.122491 27.379318 -1.665715 0.495925 -15.882195 -1.205145 -7.733536 
4.195297 43.147030 25.402918 0.000000 0.000000 180.000000 -0.067800 -5.866852 -2.799100 -2.834934 0.525042 -3.720165 14.667689 0.719168 -0.032904 2.552806 9.791325 0.227483 6.267542 -64.048393 3.119593 0.165805 1.706358 -0.961103 -112.393547 -21.632462 -51.817760 -32.402397 -4.214339 12.873235 40.276031 50.061893 -33.679855 -6.443206 -2.110819 -3.823785 113.651260 14.211507 -50.827835 31.762020 14.809165 29.859470 -5.649601 11.348018 -0.444799 17.704342 0.089145 -0.401979 -3.068563 22.187685 -3.989938 -15.067872 -13.291024 0.143074 26.969217 -1.567029 0.501062 -15.645382 -1.207573 -7.554186 
4.038696 43.147030 25.411062 0.000000 0.000000 180.000000 -0.111383 -5.787313 -2.765455 -2.855652 0.330310 -3.714075 14.338368 0.702946 -0.034094 2.494425 9.571708 0.217664 5.619732 -63.894131 2.631344 0.165805 1.706358 -0.961103 -112.628929 -20.968264 -52.018574 -32.256199 -3.894070 12.800621 40.435684 49.822533 -33.788509 -6.217600 -1.370885 -3.848066 113.628426 13.696854 -51.006584 31.144550 14.981530 29.660595 -5.719887 11.105453 -0.424716 17.704342 0.089145 -0.401979 -3.290251 21.699139 -3.714873 -14.884439 -13.561913 0.162793 26.558992 -1.468275 0.505494 -15.408521 -1.209261 -7.374796 
3.882094 43.147030 25.419209 0.000000 0.000000 180.000000 -0.154914 -5.707746 -2.731875 -2.876393 0.135567 -3.707914 14.008986 0.686715 -0.035192 2.436114 9.352062 0.208076 4.978348 -63.737427 2.149656 0.165805 1.706358 -0.961103 -112.860992 -20.302717 -52.215767 -32.110432 -3.573544 12.728837 40.593899 49.582985 -33.895641 -5.992120 -0.630078 -3.869450 113.603981 13.181998 -51.185253 30.525551 15.151935 29.459522 -5.790209 10.862878 -0.404345 17.704342 0.089145 -0.401979 -3.508801 21.209347 -3.442609 -14.700847 -13.832911 0.181644 26.148668 -1.369459 0.509219 -15.171615 -1.210207 -7.195373 
3.725493 43.147030 25.427355 0.000000 0.000000 180.000000 -0.198392 -5.628153 -2.698360 -2.897155 -0.059188 -3.701681 13.679546 0.670475 -0.036196 2.377872 9.132387 0.198720 4.343386 -63.578331 1.674522 0.165805 1.706358 -0.961103 -113.089836 -19.635893 -52.409420 -31.965097 -3.252767 12.657883 40.750652 49.343189 -34.001228 -5.766712 0.111521 -3.887933 113.577934 12.666978 -51.363873 29.905045 15.320330 29.256254 -5.860570 10.620305 -0.383685 17.704342 0.089145 -0.401979 -3.724252 20.718338 -3.173096 -14.517106 -14.104016 0.199627 25.738235 -1.270589 0.512237 -14.934671 -1.210411 -7.015919 
3.568891 43.147030 25.435501 0.000000 0.000000 180.000000 -0.241819 -5.548534 -2.664910 -2.917941 -0.253950 -3.695379 13.350052 0.654226 -0.037108 2.319697 8.912685 0.189595 3.714838 -63.416908 1.205935 0.165805 1.706358 -0.961103 -113.315514 -18.967865 -52.599609 -31.820162 -2.931751 12.587749 40.906002 49.103207 -34.105328 -5.541322 0.853837 -3.903513 113.550285 12.151810 -51.542458 29.283073 15.486681 29.050831 -5.930973 10.377734 -0.362736 17.704342 0.089145 -0.401979 -3.936649 20.226171 -2.906293 -14.333201 -14.375219 0.216735 25.327721 -1.171674 0.514547 -14.697697 -1.209873 -6.836443 
